<svg width="219" height="52" viewBox="0 0 219 52" fill="none" xmlns="http://www.w3.org/2000/svg">
<path d="M26.8172 51.6425C12.5033 51.6425 0.871094 40.17 0.871094 26.0812C0.871094 11.9925 12.5033 0.519997 26.8172 0.519997C41.1312 0.519997 52.7633 11.9925 52.7633 26.0812C52.7633 40.17 41.1312 51.6425 26.8172 51.6425ZM26.8172 2.47C13.6263 2.47 2.88242 13.065 2.88242 26.0812C2.88242 39.0975 13.6263 49.6925 26.8172 49.6925C40.0082 49.6925 50.752 39.0975 50.752 26.0812C50.752 13.065 40.0082 2.47 26.8172 2.47Z" fill="white"/>
<path d="M11.3643 24.505H8.17969V27.6575H11.3643V24.505Z" fill="white"/>
<path d="M19.8784 23.985H15.6211V28.1775H19.8784V23.985Z" fill="white"/>
<path d="M30.5227 22.945H24.1367V29.2337H30.5227V22.945Z" fill="white"/>
<path d="M45.4553 21.3688H35.8848V30.7938H45.4553V21.3688Z" fill="white"/>
<path d="M207.002 31.7525C203.851 31.7525 201.638 29.3475 201.621 25.74C201.621 22.5713 203.515 20.2313 206.566 20.2313C209.516 20.2313 211.913 22.5063 211.913 26.0813C211.913 30.3063 209.13 31.7525 207.002 31.7525ZM206.667 32.7275C210.957 32.7113 213.589 29.64 213.589 25.675C213.589 22.0838 210.941 19.2725 206.884 19.2725C202.393 19.2725 199.945 22.5713 199.945 26.1138C199.945 29.2013 202.041 32.7438 206.667 32.7275ZM187.71 26.9263C187.676 26.9263 187.66 26.91 187.676 26.8613L189.604 21.8725L191.699 26.8613C191.716 26.91 191.699 26.9263 191.665 26.9263H187.71ZM192.034 27.9175C192.084 27.9175 192.084 27.9338 192.101 27.9663C192.705 29.3638 193.677 31.6875 193.962 32.4838C194.18 32.4513 194.666 32.435 195.118 32.435C195.319 32.435 195.621 32.4513 195.939 32.4675C195.487 31.8013 194.481 29.575 193.694 27.7388C192.168 24.2613 190.442 20.41 190.241 19.9875C189.989 19.4188 189.906 19.2888 189.822 19.2888C189.721 19.2888 189.621 19.5 189.419 19.9875L185.916 28.4213C185.212 30.0788 184.542 31.59 184.089 32.5C184.224 32.4838 184.676 32.4513 185.028 32.4513C185.397 32.4513 185.564 32.4513 185.732 32.4838C185.95 31.6713 186.754 29.4775 187.308 27.9825C187.324 27.95 187.341 27.9338 187.391 27.9338L192.034 27.9175ZM169.809 24.4075C169.809 22.6363 169.809 20.9788 169.843 20.6538C169.843 20.605 169.859 20.5725 169.91 20.54C170.178 20.475 170.882 20.41 171.535 20.41C173.798 20.41 175.877 20.9625 177.1 22.4088C178.022 23.5138 178.357 24.83 178.357 26.3088C178.357 28.2263 177.553 29.7213 176.547 30.55C175.558 31.3788 174.15 31.72 172.709 31.72C171.25 31.72 170.195 31.5088 169.943 31.33C169.876 31.2813 169.859 31.0863 169.843 30.745C169.826 30.2738 169.809 28.8763 169.809 27.0563V24.4075ZM168.284 27.6088C168.284 30.16 168.217 31.72 168.183 32.4513C168.937 32.4025 169.658 32.4838 170.496 32.565C171.133 32.6138 171.804 32.6463 172.558 32.6463C175.642 32.6463 177.301 31.4925 178.156 30.6475C179.145 29.64 180.016 28.015 180.016 25.8213C180.016 23.7738 179.212 22.3763 178.34 21.4825C176.58 19.7438 173.899 19.4675 171.602 19.4675C170.429 19.4675 169.424 19.5325 169.004 19.5325C168.72 19.5325 168.334 19.5163 168.15 19.5C168.217 19.89 168.317 21.2225 168.317 24.4238V27.6088H168.284ZM146.377 27.5113C146.377 29.9325 146.293 31.8663 146.243 32.4675C146.444 32.4513 146.846 32.435 147.366 32.435C148.036 32.435 149.361 32.5325 151.824 32.5325C152.495 32.5325 152.662 32.5163 152.729 32.5C152.797 32.1588 152.947 31.5413 153.065 31.1675C152.562 31.4113 151.808 31.525 150.132 31.525C149.377 31.525 148.841 31.4763 148.439 31.4438C148.271 31.4275 148.087 31.395 148.036 31.3463C147.953 31.265 147.919 30.7775 147.919 27.3975V26.1625C147.919 26.13 147.953 26.0975 147.986 26.0975C148.305 26.0975 150.383 26.13 150.97 26.1625C151.64 26.2113 151.925 26.2763 152.176 26.4063C152.16 26.065 152.227 25.3825 152.31 24.9763C152.126 25.025 151.707 25.0738 150.785 25.1063C150.282 25.1225 148.204 25.1225 147.969 25.1225C147.936 25.1225 147.902 25.09 147.902 25.0413V20.5888C147.902 20.54 147.953 20.5238 147.969 20.5238C149.495 20.5238 150.517 20.5563 151.053 20.605C151.908 20.67 152.26 20.7675 152.461 20.8813C152.461 20.3125 152.545 19.7275 152.595 19.4675C152.277 19.5325 151.556 19.5488 151.187 19.5488H147.265C146.913 19.5488 146.427 19.5488 146.226 19.5163C146.327 20.0038 146.411 21.6938 146.411 24.4725V27.5113H146.377ZM133.555 27.5113C133.555 29.9325 133.488 31.8663 133.438 32.4675C133.655 32.435 133.924 32.435 134.326 32.435C135.181 32.435 136.438 32.5325 139.019 32.5325C139.823 32.5325 139.991 32.5163 140.075 32.5C140.142 32.24 140.326 31.4925 140.477 31.1838C140.058 31.3788 139.337 31.525 137.36 31.525C136.605 31.525 135.985 31.5088 135.633 31.4763C135.449 31.46 135.298 31.4275 135.214 31.3625C135.13 31.2975 135.097 30.8588 135.097 27.3975V24.44C135.097 22.035 135.164 20.15 135.231 19.5163C135.063 19.5488 134.56 19.565 134.175 19.565C133.957 19.565 133.538 19.565 133.404 19.5325C133.505 20.0363 133.588 22.035 133.588 24.4888V27.5113H133.555ZM119.107 27.5113C119.107 29.7375 119.057 31.785 118.989 32.4675C119.258 32.4513 119.744 32.435 120.012 32.4513C120.414 32.4675 121.269 32.565 122.493 32.565C125.627 32.565 127.102 30.68 127.102 28.6975C127.102 26.7475 125.694 25.675 124.202 25.2525C124.956 24.8463 125.895 23.9363 125.895 22.49C125.895 21.2225 125.158 19.4838 122.141 19.4838C121.252 19.4838 120.381 19.5488 119.727 19.5488C119.476 19.5488 119.157 19.5325 118.922 19.5163C119.04 20.1338 119.107 22.0188 119.107 24.4725V27.5113ZM125.493 28.925C125.493 30.7938 124.051 31.6388 122.56 31.6388C121.554 31.6388 120.867 31.46 120.682 31.2975C120.632 31.2325 120.599 30.485 120.599 27.5275V26.0488C120.599 26.0163 120.615 26 120.666 25.9838C120.833 25.9675 121.654 25.9675 122.224 26C122.962 26.0325 123.716 26.1625 124.336 26.6338C125.308 27.3488 125.493 28.145 125.493 28.925ZM120.582 20.5725C120.582 20.5238 120.599 20.4913 120.632 20.475C120.749 20.4425 121.168 20.41 121.755 20.41C123.548 20.41 124.47 21.385 124.47 22.8475C124.47 23.595 124.118 24.4238 123.398 24.895C123.18 25.025 123.046 25.0575 122.727 25.0575C122.442 25.0575 121.018 25.0413 120.666 25.025C120.615 25.0088 120.599 24.9763 120.599 24.9438L120.582 20.5725ZM104.357 20.5888C104.357 20.5238 104.357 20.4913 104.424 20.475C104.676 20.4263 105.162 20.41 105.715 20.41C107.743 20.41 108.95 21.5313 108.95 23.3513C108.95 24.5863 108.313 25.48 107.609 25.9838C107.374 26.1463 107.089 26.195 106.586 26.195C105.648 26.195 104.759 26.1463 104.407 26.0813C104.374 26.065 104.357 26.0325 104.357 25.9188V20.5888ZM102.865 27.5113C102.865 29.7375 102.798 31.8988 102.681 32.4838C102.882 32.4513 103.402 32.435 103.72 32.435C104.022 32.435 104.34 32.435 104.491 32.4675C104.407 31.72 104.324 29.8513 104.324 27.69V27.1538C104.324 27.0888 104.324 27.0563 104.374 27.0563C105.145 27.0725 106.435 27.0888 106.804 27.0725C106.888 27.0725 106.972 27.105 107.039 27.1863C107.86 28.2425 109.503 30.615 110.475 31.5575C111.196 32.2888 111.631 32.5163 112.419 32.5163C112.838 32.5163 113.341 32.5 113.576 32.4188C113.24 32.2888 112.687 31.8338 111.95 31.0213C110.726 29.7538 109.436 28.015 108.296 26.5525C109.737 25.5938 110.458 24.3913 110.458 22.8963C110.458 21.6613 109.804 20.6538 108.883 20.085C108.128 19.6138 106.989 19.4675 105.782 19.4675C105.162 19.4675 103.804 19.5325 103.452 19.5325C103.184 19.5325 102.949 19.5325 102.631 19.5C102.815 20.0688 102.849 22.0025 102.849 24.4563V27.5113H102.865ZM88.719 26.9263C88.6855 26.9263 88.6687 26.91 88.6855 26.8613L90.613 21.8725L92.7081 26.8613C92.7249 26.91 92.7081 26.9263 92.6746 26.9263H88.719ZM93.0266 27.9175C93.0769 27.9175 93.0769 27.9338 93.0936 27.9663C93.697 29.3638 94.6692 31.6875 94.9541 32.4838C95.172 32.4513 95.6581 32.435 96.1106 32.435C96.3118 32.435 96.6135 32.4513 96.9319 32.4675C96.4794 31.8013 95.4737 29.575 94.6859 27.7388C93.1607 24.2613 91.4343 20.41 91.2332 19.9875C90.9817 19.4188 90.8979 19.2888 90.8141 19.2888C90.7136 19.2888 90.613 19.5 90.4119 19.9875L86.9088 28.4213C86.2048 30.0788 85.5344 31.59 85.0818 32.5C85.2159 32.4838 85.6685 32.4513 86.0205 32.4513C86.3892 32.4513 86.5568 32.4513 86.7244 32.4838C86.9423 31.6713 87.7469 29.4775 88.3 27.9825C88.3167 27.95 88.3335 27.9338 88.3838 27.9338L93.0266 27.9175ZM64.8848 32.4838C65.0691 32.4513 65.4044 32.435 65.8234 32.435C65.991 32.435 66.3095 32.435 66.4938 32.4675C66.4938 31.4113 66.9464 25.74 67.1475 22.685C68.5554 25.7075 70.1142 28.6975 71.8909 32.3538C72.0082 32.63 72.0753 32.63 72.2094 32.3213C73.7011 29.2825 75.5951 25.7563 77.0868 22.7338C77.288 25.935 77.707 31.4113 77.6902 32.5C77.9249 32.4675 78.3271 32.4513 78.7629 32.4513C79.1317 32.4513 79.3831 32.4513 79.5172 32.4838C79.2658 31.4925 78.7964 26.4713 78.3942 22.425C78.3104 21.4988 78.2098 20.5888 78.1428 19.76C78.0925 19.3538 78.059 19.2725 77.9752 19.2725C77.9249 19.2725 77.8411 19.3375 77.6567 19.6463C77.1036 20.7025 76.6007 21.7263 75.6621 23.3188L72.2094 29.9488L68.304 22.49C67.818 21.645 66.9631 19.9875 66.7117 19.565C66.6112 19.4025 66.5441 19.2725 66.4771 19.2725C66.4268 19.2725 66.3933 19.3213 66.3597 19.5325C66.2759 20.3613 66.1754 21.255 66.0748 22.23C65.6725 26.325 65.0691 31.5738 64.8848 32.4838Z" fill="white"/>
</svg>
