<svg width="213" height="51" viewBox="0 0 213 51" fill="none" xmlns="http://www.w3.org/2000/svg">
<path d="M25.7852 0C11.5438 0 0 11.3599 0 25.3691C0 39.3784 11.5438 50.7383 25.7852 50.7383C40.0309 50.7383 51.5747 39.3784 51.5747 25.3691C51.5747 11.3599 40.0309 0 25.7852 0Z" fill="white"/>
<path d="M25.779 1.42606C12.339 1.42606 1.44336 12.1441 1.44336 25.3607C1.44336 38.5816 12.339 49.2996 25.779 49.2996C39.219 49.2996 50.1146 38.5816 50.1146 25.3607C50.1146 12.1441 39.219 1.42606 25.779 1.42606Z" fill="white"/>
<path d="M25.7768 2.73965C13.0769 2.73965 2.78125 12.8675 2.78125 25.356C2.78125 37.8532 13.0769 47.9767 25.7768 47.9767C38.4767 47.9767 48.7724 37.8532 48.7724 25.356C48.7724 12.8675 38.4767 2.73965 25.7768 2.73965Z" fill="#1A1A1A"/>
<path d="M10.2839 27.0405H7.33662C7.214 27.0405 7.11328 26.9457 7.11328 26.8251V23.9216C7.11328 23.8053 7.214 23.7062 7.33662 23.7062H10.2839C10.4065 23.7062 10.5072 23.8053 10.5072 23.9216V26.8251C10.5072 26.9457 10.4065 27.0405 10.2839 27.0405Z" fill="white"/>
<path d="M19.8805 27.8635H15.4749C15.2954 27.8635 15.1465 27.717 15.1465 27.5404V23.2067C15.1465 23.0257 15.2954 22.8836 15.4749 22.8836H19.8805C20.06 22.8836 20.2089 23.0257 20.2089 23.2067V27.5404C20.2089 27.717 20.06 27.8635 19.8805 27.8635Z" fill="white"/>
<path d="M31.057 28.6303H25.2807C25.0443 28.6303 24.8516 28.4451 24.8516 28.2082V22.5261C24.8516 22.2934 25.0443 22.1039 25.2807 22.1039H31.057C31.2935 22.1039 31.4862 22.2934 31.4862 22.5261V28.2082C31.4862 28.4451 31.2935 28.6303 31.057 28.6303Z" fill="white"/>
<path d="M43.9056 29.4529H36.6754C36.382 29.4529 36.1367 29.2117 36.1367 28.9188V21.8064C36.1367 21.5178 36.382 21.2766 36.6754 21.2766H43.9056C44.2033 21.2766 44.4442 21.5178 44.4442 21.8064V28.9188C44.4442 29.2117 44.2033 29.4529 43.9056 29.4529Z" fill="white"/>
<path d="M65.6109 32.0351C64.6037 28.9119 63.5658 25.8447 62.4929 22.8335H62.3177C62.3177 22.9713 62.287 23.4495 62.2301 24.2637C62.1819 25.0822 62.1425 25.7585 62.1075 26.297C61.9411 28.5026 61.8622 29.6916 61.8622 29.8639C61.8622 30.2775 62.0768 30.4843 62.5104 30.4843L63.176 30.467L63.2986 30.5704L63.0884 31.8111C61.9673 31.7508 61.1835 31.7249 60.7412 31.7249C60.4346 31.7249 60.0667 31.7422 59.6376 31.7766C59.204 31.8197 58.9106 31.8542 58.7617 31.88L58.8843 30.6049C59.2697 30.5618 59.55 30.4412 59.7252 30.243C59.9003 30.0362 60.0273 29.6873 60.1105 29.1919C60.2244 28.1709 60.3821 26.6416 60.5835 24.6083C60.7937 22.575 60.8988 21.4549 60.8988 21.2482C60.8988 20.9035 60.7937 20.6709 60.5835 20.5417C60.3821 20.4038 59.9879 20.309 59.3923 20.2487L59.2872 20.1281L59.4624 18.9908C60.5572 19.0597 61.3937 19.0942 61.9673 19.0942C62.2564 19.0942 62.9658 19.0684 64.0869 19.0081C64.6212 20.8604 65.3657 23.2642 66.3116 26.2281L66.6444 27.262H66.8021C66.8809 26.9992 66.986 26.6675 67.1174 26.2625C67.2575 25.8619 67.3976 25.4311 67.5378 24.9702C68.2253 22.9842 68.8735 21.0198 69.4822 19.077C69.7625 19.077 69.9902 19.0856 70.1653 19.0942L71.2339 19.1114L71.847 19.0942C72.1273 19.0942 72.482 19.0856 72.9155 19.0597C73.3578 19.0253 73.6775 18.9994 73.879 18.9736L73.9666 19.0597L73.8439 20.2315C73.2703 20.2918 72.8805 20.3952 72.6703 20.5417C72.4688 20.6795 72.3725 20.9294 72.3725 21.2826C72.3725 21.6876 72.4251 22.7214 72.5302 24.3843C72.6353 26.0385 72.7404 27.4687 72.8455 28.6749C72.9243 29.3987 73.0294 29.8812 73.1608 30.1224C73.2878 30.3636 73.5111 30.4843 73.8264 30.4843C73.9753 30.4843 74.0979 30.4799 74.1943 30.467C74.2994 30.4584 74.3607 30.4498 74.387 30.4498L74.4746 30.536L74.2819 31.7766C74.0804 31.7766 73.9009 31.768 73.7388 31.7594C73.152 31.7335 72.6615 31.7249 72.2674 31.7249C71.882 31.7249 71.3653 31.7422 70.7259 31.7766C70.0953 31.8197 69.6617 31.8542 69.4296 31.88L69.5698 30.6049C69.9639 30.5489 70.2529 30.4455 70.4281 30.2947C70.6033 30.1482 70.6909 29.9242 70.6909 29.6227C70.6909 29.5667 70.6383 28.7525 70.5332 27.1758C70.3799 25.1209 70.2923 23.6735 70.2705 22.8335H70.0778C68.9654 25.9007 67.9275 28.9119 66.9597 31.8628L65.6109 32.0351Z" fill="white"/>
<path d="M84.7224 31.7244L84.8275 30.5699C85.2829 30.5268 85.607 30.4794 85.8084 30.4321C86.0186 30.389 86.1631 30.3244 86.2463 30.2425C86.3252 30.152 86.369 30.0271 86.369 29.8634C86.369 29.704 86.3339 29.4757 86.2639 29.1742L85.8434 27.6578C85.1515 27.6233 84.5384 27.6061 84.0042 27.6061C83.7589 27.6061 83.2553 27.6405 82.4977 27.7095L82.0773 27.7439L81.5868 29.2603C81.5036 29.5489 81.4642 29.7557 81.4642 29.8806C81.4642 30.1133 81.5342 30.2727 81.6744 30.3631C81.8145 30.4579 82.0598 30.501 82.4101 30.501H83.2684L83.356 30.6388L83.2159 31.845C83.0276 31.8321 82.6247 31.8106 82.0072 31.7761C81.3985 31.7416 80.8336 31.7244 80.308 31.7244C79.7475 31.7244 79.2395 31.7287 78.7841 31.7416C78.3374 31.7503 78.0483 31.7632 77.9082 31.7761L78.0483 30.501C78.3505 30.4579 78.6001 30.3373 78.8016 30.1391C78.9986 29.9323 79.187 29.6136 79.3621 29.1742L82.9356 19.1971L86.0011 18.8697L86.2288 18.9731C86.4259 19.7227 86.8419 21.2563 87.4725 23.5739C88.1032 25.8829 88.6462 27.7396 89.1016 29.1397C89.2505 29.6222 89.4388 29.9625 89.6622 30.1563C89.8811 30.3545 90.2227 30.4665 90.6782 30.501L90.7658 30.6388L90.6256 31.7761C90.4504 31.7632 90.122 31.7503 89.6447 31.7416C89.1629 31.7287 88.6812 31.7244 88.1907 31.7244C87.4769 31.7244 86.7806 31.746 86.1062 31.7933C85.4406 31.8364 85.0114 31.8666 84.8275 31.8795L84.7224 31.7244ZM84.0042 26.0897C84.1443 26.0897 84.6348 26.0725 85.4756 26.038L84.3019 21.644H84.0392L82.5678 26.0897H84.0042Z" fill="white"/>
<path d="M103.977 32.035C103.109 32.035 102.387 31.4276 101.804 30.2085L100.053 26.7449H98.6339L98.5988 28.9678C98.5988 29.4288 98.6251 29.7605 98.6864 29.9672C98.7565 30.1654 98.8835 30.2946 99.0718 30.3636C99.2557 30.4325 99.5798 30.4756 100.035 30.4842L100.088 30.6048L99.9126 31.811C99.6761 31.7852 99.2557 31.7679 98.6514 31.7593C98.0558 31.7464 97.4996 31.7421 96.9872 31.7421C96.4968 31.7421 95.9888 31.7507 95.4633 31.7766C94.9465 31.811 94.6093 31.8326 94.4473 31.8455L94.64 30.5359C95.2005 30.4799 95.5727 30.342 95.761 30.1223C95.9581 29.894 96.0588 29.4977 96.0588 28.9334V21.317C96.0588 20.9379 96.0107 20.6881 95.9187 20.5588C95.8355 20.421 95.6647 20.352 95.4107 20.352C95.2706 20.352 95.1304 20.3607 94.9903 20.3693C94.8589 20.3822 94.7713 20.3865 94.7275 20.3865L94.6224 20.2314L94.7976 19.0597C94.9815 19.0597 95.3231 19.0683 95.8136 19.0769C96.3128 19.0898 96.8121 19.0941 97.3026 19.0941C97.8281 19.0941 98.3974 19.0855 99.0192 19.0597C99.6367 19.0381 100.07 19.0209 100.315 19.008C101.831 19.008 102.996 19.3009 103.801 19.8868C104.607 20.4641 105.01 21.2955 105.01 22.3854C105.01 23.1565 104.774 23.863 104.309 24.5048C103.841 25.151 103.175 25.6895 102.312 26.1246L104.082 28.9334C104.454 29.5322 104.809 29.9629 105.15 30.2257C105.501 30.4928 105.89 30.622 106.324 30.622L106.464 30.7944L106.324 31.8283L103.977 32.035ZM100.491 25.2286C100.933 25.0476 101.336 24.7762 101.699 24.4187C102.058 24.0525 102.242 23.4882 102.242 22.73C102.242 22.0063 101.988 21.4721 101.489 21.1275C100.999 20.7742 100.237 20.5933 99.2119 20.5933C99.0805 20.5933 98.993 20.6234 98.9492 20.6794C98.901 20.7268 98.8703 20.8431 98.8616 21.0241C98.7784 22.3681 98.7214 23.7079 98.6864 25.039L100.491 25.2286Z" fill="white"/>
<path d="M113.258 31.7252C112.789 31.7252 112.242 31.7467 111.611 31.7941C110.989 31.8501 110.577 31.8889 110.367 31.9147L110.507 30.6223C111.077 30.5189 111.462 30.3596 111.663 30.1398C111.874 29.9245 111.979 29.5626 111.979 29.0543L111.996 21.3345C111.996 20.9684 111.948 20.7142 111.856 20.5763C111.76 20.4299 111.593 20.3523 111.348 20.3523C111.217 20.3523 111.085 20.3609 110.945 20.3696C110.814 20.3825 110.726 20.3868 110.682 20.3868L110.542 20.2317L110.718 19.06C110.928 19.06 111.313 19.0686 111.874 19.0772C112.443 19.0901 112.977 19.0944 113.468 19.0944C113.98 19.0944 114.545 19.0858 115.167 19.06C115.797 19.0255 116.24 19.004 116.498 18.991C117.865 18.991 118.907 19.2581 119.634 19.7837C120.356 20.3006 120.72 21.0545 120.72 22.041C120.72 22.6958 120.527 23.2774 120.142 23.7814C119.765 24.2897 119.235 24.7119 118.548 25.0565C119.424 25.2762 120.115 25.6338 120.632 26.1249C121.145 26.6074 121.403 27.2277 121.403 27.9859C121.403 28.757 121.18 29.442 120.737 30.0365C120.304 30.6353 119.695 31.1005 118.916 31.4322C118.145 31.751 117.243 31.9147 116.218 31.9147C116.051 31.9147 115.833 31.9018 115.552 31.8802C115.272 31.8544 115.062 31.8372 114.922 31.8285C114.746 31.8156 114.475 31.7941 114.116 31.7596C113.752 31.7338 113.468 31.7252 113.258 31.7252ZM114.641 24.4879C114.79 24.5008 115.106 24.5353 115.587 24.5913C116.078 24.6387 116.397 24.6602 116.551 24.6602C116.551 24.6861 116.678 24.6171 116.936 24.4534C117.203 24.2941 117.435 24.0571 117.637 23.7469C117.847 23.4282 117.952 23.0232 117.952 22.5407C117.952 21.8644 117.724 21.369 117.269 21.0588C116.822 20.7487 116.117 20.5936 115.149 20.5936C115.018 20.5936 114.93 20.6237 114.887 20.6797C114.838 20.7271 114.808 20.8176 114.799 20.9554C114.716 22.0238 114.663 23.2042 114.641 24.4879ZM114.519 29.106C114.519 29.5324 114.663 29.8297 114.957 30.002C115.246 30.1743 115.732 30.2605 116.411 30.2605C117.063 30.2605 117.575 30.0882 117.952 29.7435C118.324 29.3903 118.513 28.8992 118.513 28.2788C118.513 27.7404 118.337 27.2923 117.987 26.9348C117.637 26.5815 117.129 26.3274 116.463 26.1766L114.589 26.1938L114.519 29.106Z" fill="white"/>
<path d="M126.269 30.6044C126.781 30.5268 127.132 30.3718 127.32 30.1391C127.504 29.8979 127.6 29.4929 127.6 28.9157L127.618 21.3683C127.618 20.9676 127.57 20.6962 127.478 20.5584C127.381 20.4205 127.189 20.3516 126.9 20.3516L126.269 20.3688L126.181 20.2138L126.339 19.0765L129.019 19.0937C129.391 19.0937 129.934 19.0765 130.648 19.042C131.358 18.9989 131.826 18.9688 132.05 18.9559L131.909 20.3171C131.454 20.3645 131.121 20.4378 130.911 20.5412C130.71 20.6359 130.583 20.7738 130.526 20.9547C130.464 21.127 130.421 21.4027 130.385 21.7818C130.245 23.7591 130.175 26.1673 130.175 29.0018C130.175 29.3594 130.202 29.6222 130.263 29.7945C130.333 29.9582 130.456 30.0659 130.631 30.1219C130.806 30.1822 131.073 30.2081 131.437 30.2081C132.102 30.2081 132.597 30.1391 132.925 30.0013C133.25 29.8548 133.49 29.5791 133.644 29.1742C133.806 28.7606 133.941 28.1187 134.047 27.2442L135.676 27.0547L135.816 27.2615C135.781 27.5027 135.702 28.0627 135.588 28.9329C135.47 29.8074 135.369 30.725 135.29 31.69L135.098 31.8795C134.734 31.8666 133.95 31.8364 132.75 31.7934C131.546 31.746 130.46 31.7244 129.492 31.7244C128.756 31.7244 128.056 31.746 127.39 31.7934C126.724 31.8494 126.295 31.8881 126.111 31.914L126.269 30.6044Z" fill="white"/>
<path d="M150.091 28.0027C149.881 29.028 149.697 30.2385 149.548 31.6386L149.355 31.8626C146.806 31.7678 144.735 31.7248 143.136 31.7248C142.015 31.7248 140.868 31.7851 139.703 31.9143L139.843 30.6047C140.404 30.5272 140.78 30.3721 140.982 30.1395C141.192 29.8982 141.297 29.4933 141.297 28.916L141.315 21.4203C141.315 20.9852 141.271 20.6966 141.192 20.5587C141.109 20.4209 140.934 20.3519 140.667 20.3519C140.491 20.3519 140.286 20.3649 140.053 20.3864L139.931 20.2141L140.089 19.0251H140.491C141.437 19.0725 142.51 19.094 143.715 19.094C146.679 19.094 148.707 19.0165 149.793 18.8528L149.951 19.0768C149.846 19.5593 149.745 20.1365 149.653 20.8C149.57 21.4677 149.517 22.0751 149.495 22.6265L147.708 22.7471L147.743 21.9717C147.743 21.5711 147.682 21.2911 147.568 21.1274C147.463 20.968 147.24 20.8603 146.903 20.8C146.561 20.731 145.992 20.6966 145.186 20.6966C144.844 20.6966 144.608 20.7138 144.468 20.7483C144.336 20.7741 144.249 20.8301 144.205 20.9206C144.157 21.0153 144.126 21.1618 144.117 21.3686L143.977 24.4703L145.852 24.4875C146.132 24.4875 146.482 24.4703 146.903 24.4358C147.323 24.4013 147.743 24.3583 148.164 24.298L148.339 24.4875L148.059 26.159C147.884 26.159 147.748 26.1547 147.656 26.1417C146.719 26.1073 145.979 26.09 145.431 26.09C145.02 26.09 144.507 26.1331 143.89 26.2107L143.855 29.0366C143.855 29.4071 143.881 29.6699 143.942 29.8293C143.999 29.9801 144.109 30.0834 144.275 30.1395C144.45 30.1868 144.739 30.2084 145.151 30.2084C146.027 30.2084 146.662 30.1653 147.06 30.0705C147.454 29.9671 147.735 29.769 147.901 29.4674C148.076 29.1573 148.208 28.6575 148.304 27.9683L149.951 27.8304L150.091 28.0027Z" fill="white"/>
<path d="M173.471 31.9661C173.261 31.9316 172.823 31.8799 172.157 31.811C171.5 31.7507 170.935 31.7249 170.458 31.7249C170.011 31.7249 169.516 31.7464 168.969 31.7938C168.417 31.8498 168.067 31.8886 167.918 31.9144L168.041 30.6048C168.61 30.5143 168.995 30.355 169.197 30.1223C169.394 29.8811 169.495 29.4848 169.495 28.9334V21.4376C169.495 21.0155 169.451 20.7311 169.372 20.5933C169.289 20.4468 169.118 20.3693 168.864 20.3693C168.724 20.3693 168.584 20.3779 168.443 20.3865C168.312 20.3994 168.233 20.4037 168.198 20.4037L168.093 20.2314L168.251 19.0252C168.435 19.0252 168.781 19.0381 169.284 19.0597C169.797 19.0855 170.292 19.0941 170.773 19.0941C171.356 19.0941 171.969 19.0855 172.613 19.0597C173.252 19.0381 173.69 19.0209 173.926 19.008C175.266 19.008 176.423 19.2449 177.395 19.7145C178.363 20.1883 179.103 20.8647 179.619 21.7478C180.145 22.6352 180.408 23.6864 180.408 24.9012C180.408 26.2582 180.11 27.4773 179.514 28.5543C178.927 29.6355 178.104 30.4756 177.044 31.0701C175.993 31.6689 174.802 31.9661 173.471 31.9661ZM172.858 20.6622C172.634 20.6622 172.481 20.6967 172.402 20.7656C172.332 20.8345 172.288 20.9638 172.28 21.1447C172.105 24.7978 172.017 27.3739 172.017 28.8644C172.017 29.2694 172.061 29.5709 172.157 29.7777C172.249 29.9759 172.42 30.1137 172.665 30.1913C172.91 30.2731 173.265 30.3119 173.734 30.3119C174.899 30.3119 175.792 29.9069 176.414 29.0884C177.044 28.2742 177.36 27.081 177.36 25.5043C177.36 23.8414 176.983 22.618 176.239 21.834C175.503 21.0542 174.373 20.6622 172.858 20.6622Z" fill="white"/>
<path d="M190.713 31.725L190.818 30.5705C191.273 30.5274 191.597 30.48 191.799 30.4326C192.009 30.3895 192.153 30.3249 192.237 30.2431C192.315 30.1526 192.359 30.0277 192.359 29.864C192.359 29.7046 192.324 29.4763 192.254 29.1747L191.834 27.6583C191.142 27.6239 190.529 27.6066 189.994 27.6066C189.749 27.6066 189.246 27.6411 188.488 27.71L188.068 27.7445L187.577 29.2609C187.494 29.5495 187.454 29.7563 187.454 29.8812C187.454 30.1138 187.524 30.2732 187.665 30.3637C187.805 30.4584 188.05 30.5015 188.4 30.5015H189.259L189.346 30.6394L189.206 31.8456C189.018 31.8327 188.615 31.8111 187.997 31.7767C187.389 31.7422 186.824 31.725 186.298 31.725C185.738 31.725 185.23 31.7293 184.774 31.7422C184.328 31.7508 184.039 31.7637 183.898 31.7767L184.039 30.5015C184.341 30.4584 184.59 30.3378 184.792 30.1397C184.989 29.9329 185.177 29.6141 185.352 29.1747L188.926 19.1976L191.991 18.8702L192.219 18.9736C192.416 19.7232 192.832 21.2568 193.463 23.5744C194.093 25.8835 194.636 27.7402 195.092 29.1402C195.241 29.6227 195.429 29.963 195.652 30.1569C195.871 30.3551 196.213 30.4671 196.668 30.5015L196.756 30.6394L196.616 31.7767C196.441 31.7637 196.112 31.7508 195.635 31.7422C195.153 31.7293 194.671 31.725 194.181 31.725C193.467 31.725 192.771 31.7465 192.096 31.7939C191.431 31.837 191.002 31.8671 190.818 31.8801L190.713 31.725ZM189.994 26.0903C190.135 26.0903 190.625 26.073 191.466 26.0386L190.292 21.6445H190.029L188.558 26.0903H189.994Z" fill="white"/>
<path d="M205.996 31.966C204.813 31.966 203.793 31.7161 202.93 31.2078C202.076 30.7038 201.415 29.9844 200.951 29.0539C200.495 28.1234 200.268 27.0205 200.268 25.7454C200.268 24.3798 200.539 23.1779 201.091 22.144C201.638 21.1101 202.409 20.3089 203.403 19.7316C204.393 19.1457 205.54 18.8528 206.836 18.8528C208.028 18.8528 209.061 19.1026 209.937 19.5937C210.813 20.0892 211.479 20.8 211.934 21.7305C212.398 22.6523 212.635 23.7465 212.635 25.0217C212.635 26.3787 212.354 27.5849 211.794 28.6403C211.242 29.7 210.467 30.5185 209.464 31.1044C208.457 31.6817 207.301 31.966 205.996 31.966ZM206.504 30.2945C207.471 30.2945 208.225 29.9284 208.763 29.1917C209.298 28.4465 209.569 27.3953 209.569 26.0383C209.569 24.3152 209.28 23.0013 208.711 22.0923C208.137 21.1877 207.327 20.731 206.276 20.731C205.33 20.731 204.586 21.1058 204.051 21.8511C203.526 22.5877 203.263 23.6259 203.263 24.97C203.263 26.6931 203.543 28.0157 204.104 28.9332C204.673 29.8422 205.475 30.2945 206.504 30.2945Z" fill="white"/>
</svg>
