<svg version="1.1" id="Layer_1" xmlns="http://www.w3.org/2000/svg" xmlns:xlink="http://www.w3.org/1999/xlink" x="0px" y="0px"
	 viewBox="0 0 929.7 314.6" style="enable-background:new 0 0 929.7 314.6;" xml:space="preserve">
<style type="text/css">
	.st0{fill:#FFFFFF;}
</style>
<g>
	<g>
		<path class="st0" d="M154.8,314.6C69.4,314.6,0,244,0,157.3S69.4,0,154.8,0s154.8,70.6,154.8,157.3S240.2,314.6,154.8,314.6z
			 M154.8,12C76.1,12,12,77.2,12,157.3s64.1,145.3,142.8,145.3s142.8-65.2,142.8-145.3S233.5,12,154.8,12z"/>
	</g>
</g>
<g>
	<rect x="43.6" y="147.6" class="st0" width="19" height="19.4"/>
</g>
<g>
	<rect x="88" y="144.4" class="st0" width="25.4" height="25.8"/>
</g>
<g>
	<rect x="138.8" y="138" class="st0" width="38.1" height="38.7"/>
</g>
<g>
	<rect x="208.9" y="128.3" class="st0" width="57.1" height="58"/>
</g>
<g>
	<path class="st0" d="M889.8,166.1c0,14.9-0.5,26.8-0.8,30.5c1.2-0.1,3.6-0.2,6.7-0.2c4,0,11.9,0.6,26.6,0.6c4,0,5-0.1,5.4-0.2
		c0.4-2.1,1.3-5.9,2-8.2c-3,1.5-7.5,2.2-17.5,2.2c-4.5,0-7.7-0.3-10.1-0.5c-1-0.1-2.1-0.3-2.4-0.6c-0.5-0.5-0.7-3.5-0.7-24.3v-7.6
		c0-0.2,0.2-0.4,0.4-0.4c1.9,0,14.3,0.2,17.8,0.4c4,0.3,5.7,0.7,7.2,1.5c-0.1-2.1,0.3-6.3,0.8-8.8c-1.1,0.3-3.6,0.6-9.1,0.8
		c-3,0.1-15.4,0.1-16.8,0.1c-0.2,0-0.4-0.2-0.4-0.5v-27.4c0-0.3,0.3-0.4,0.4-0.4c9.1,0,15.2,0.2,18.4,0.5c5.1,0.4,7.2,1,8.4,1.7
		c0-3.5,0.5-7.1,0.8-8.7c-1.9,0.4-6.2,0.5-8.4,0.5h-23.4c-2.1,0-5,0-6.2-0.2c0.6,3,1.1,13.4,1.1,30.5v18.7H889.8z M813.3,166.1
		c0,14.9-0.4,26.8-0.7,30.5c1.3-0.2,2.9-0.2,5.3-0.2c5.1,0,12.6,0.6,28,0.6c4.8,0,5.8-0.1,6.3-0.2c0.4-1.6,1.5-6.2,2.4-8.1
		c-2.5,1.2-6.8,2.1-18.6,2.1c-4.5,0-8.2-0.1-10.3-0.3c-1.1-0.1-2-0.3-2.5-0.7s-0.7-3.1-0.7-24.4v-18.2c0-14.8,0.4-26.4,0.8-30.3
		c-1,0.2-4,0.3-6.3,0.3c-1.3,0-3.8,0-4.6-0.2c0.6,3.1,1.1,15.4,1.1,30.5v18.6L813.3,166.1L813.3,166.1z M727.1,166.1
		c0,13.7-0.3,26.3-0.7,30.5c1.6-0.1,4.5-0.2,6.1-0.1c2.4,0.1,7.5,0.7,14.8,0.7c18.7,0,27.5-11.6,27.5-23.8c0-12-8.4-18.6-17.3-21.2
		c4.5-2.5,10.1-8.1,10.1-17c0-7.8-4.4-18.5-22.4-18.5c-5.3,0-10.5,0.4-14.4,0.4c-1.5,0-3.4-0.1-4.8-0.2c0.7,3.8,1.1,15.4,1.1,30.5
		L727.1,166.1L727.1,166.1z M765.2,174.8c0,11.5-8.6,16.7-17.5,16.7c-6,0-10.1-1.1-11.2-2.1c-0.3-0.4-0.5-5-0.5-23.2v-9.1
		c0-0.2,0.1-0.3,0.4-0.4c1-0.1,5.9-0.1,9.3,0.1c4.4,0.2,8.9,1,12.6,3.9C764.1,165.1,765.2,170,765.2,174.8 M735.9,123.4
		c0-0.3,0.1-0.5,0.3-0.6c0.7-0.2,3.2-0.4,6.7-0.4c10.7,0,16.2,6,16.2,15c0,4.6-2.1,9.7-6.4,12.6c-1.3,0.8-2.1,1-4,1
		c-1.7,0-10.2-0.1-12.3-0.2c-0.3-0.1-0.4-0.3-0.4-0.5L735.9,123.4L735.9,123.4z M639.1,123.5c0-0.4,0-0.6,0.4-0.7
		c1.5-0.3,4.4-0.4,7.7-0.4c12.1,0,19.3,6.9,19.3,18.1c0,7.6-3.8,13.1-8,16.2c-1.4,1-3.1,1.3-6.1,1.3c-5.6,0-10.9-0.3-13-0.7
		c-0.2-0.1-0.3-0.3-0.3-1L639.1,123.5L639.1,123.5z M630.2,166.1c0,13.7-0.4,27-1.1,30.6c1.2-0.2,4.3-0.3,6.2-0.3
		c1.8,0,3.7,0,4.6,0.2c-0.5-4.6-1-16.1-1-29.4v-3.3c0-0.4,0-0.6,0.3-0.6c4.6,0.1,12.3,0.2,14.5,0.1c0.5,0,1,0.2,1.4,0.7
		c4.9,6.5,14.7,21.1,20.5,26.9c4.3,4.5,6.9,5.9,11.6,5.9c2.5,0,5.5-0.1,6.9-0.6c-2-0.8-5.3-3.6-9.7-8.6c-7.3-7.8-15-18.5-21.8-27.5
		c8.6-5.9,12.9-13.3,12.9-22.5c0-7.6-3.9-13.8-9.4-17.3c-4.5-2.9-11.3-3.8-18.5-3.8c-3.7,0-11.8,0.4-13.9,0.4c-1.6,0-3,0-4.9-0.2
		c1.1,3.5,1.3,15.4,1.3,30.5v18.8L630.2,166.1L630.2,166.1z M545.8,162.5c-0.2,0-0.3-0.1-0.2-0.4l11.5-30.7l12.5,30.7
		c0.1,0.3,0,0.4-0.2,0.4H545.8z M571.5,168.6c0.3,0,0.3,0.1,0.4,0.3c3.6,8.6,9.4,22.9,11.1,27.8c1.3-0.2,4.2-0.3,6.9-0.3
		c1.2,0,3,0.1,4.9,0.2c-2.7-4.1-8.7-17.8-13.4-29.1c-9.1-21.4-19.4-45.1-20.6-47.7c-1.5-3.5-2-4.3-2.5-4.3c-0.6,0-1.2,1.3-2.4,4.3
		L535,171.7c-4.2,10.2-8.2,19.5-10.9,25.1c0.8-0.1,3.5-0.3,5.6-0.3c2.2,0,3.2,0,4.2,0.2c1.3-5,6.1-18.5,9.4-27.7
		c0.1-0.2,0.2-0.3,0.5-0.3L571.5,168.6L571.5,168.6z M403.6,196.7c1.1-0.2,3.1-0.3,5.6-0.3c1,0,2.9,0,4,0.2c0-6.5,2.7-41.4,3.9-60.2
		c8.4,18.6,17.7,37,28.3,59.5c0.7,1.7,1.1,1.7,1.9-0.2c8.9-18.7,20.2-40.4,29.1-59c1.2,19.7,3.7,53.4,3.6,60.1
		c1.4-0.2,3.8-0.3,6.4-0.3c2.2,0,3.7,0,4.5,0.2c-1.5-6.1-4.3-37-6.7-61.9c-0.5-5.7-1.1-11.3-1.5-16.4c-0.3-2.5-0.5-3-1-3
		c-0.3,0-0.8,0.4-1.9,2.3c-3.3,6.5-6.3,12.8-11.9,22.6l-20.6,40.8L424,135.2c-2.9-5.2-8-15.4-9.5-18c-0.6-1-1-1.8-1.4-1.8
		c-0.3,0-0.5,0.3-0.7,1.6c-0.5,5.1-1.1,10.6-1.7,16.6C408.3,158.8,404.7,191.1,403.6,196.7"/>
</g>
</svg>
