<svg width="28" height="28" viewBox="0 0 28 28" fill="none" xmlns="http://www.w3.org/2000/svg">
<path d="M20.1718 4.83003L20.0901 9.25167C20.0784 9.85834 20.4635 10.6634 20.9535 11.025L23.8468 13.2183C25.7018 14.6183 25.3985 16.3334 23.1818 17.0334L19.4135 18.2117C18.7835 18.41 18.1185 19.0984 17.9552 19.74L17.0568 23.17C16.3451 25.8767 14.5718 26.145 13.1018 23.765L11.0484 20.44C10.6751 19.8333 9.78845 19.3784 9.08845 19.4134L5.19183 19.6117C2.40349 19.7517 1.61015 18.1417 3.43015 16.0184L5.74013 13.335C6.17179 12.8333 6.37012 11.9 6.17179 11.27L4.99351 7.50167C4.30518 5.285 5.54183 4.06002 7.74683 4.78335L11.1885 5.91502C11.7718 6.10169 12.6468 5.97334 13.1368 5.61168L16.7302 3.02168C18.6668 1.62167 20.2185 2.43836 20.1718 4.83003Z" stroke="#292D32" stroke-width="1.5" stroke-linecap="round" stroke-linejoin="round"/>
<path d="M25.5613 25.6667L22.0264 22.1317" stroke="#292D32" stroke-width="1.5" stroke-linecap="round" stroke-linejoin="round"/>
</svg>
