<svg xmlns="http://www.w3.org/2000/svg" xmlns:xlink="http://www.w3.org/1999/xlink" width="63" zoomAndPan="magnify" viewBox="0 0 47.25 47.25" height="63" preserveAspectRatio="xMidYMid meet" version="1.0">
    <defs>
        <g />
        <clipPath id="id1">
            <path d="M 1.171875 0 L 47.683594 0 L 47.683594 46.378906 L 1.171875 46.378906 Z M 1.171875 0 " clipRule="nonzero" />
        </clipPath>
    </defs>
    <g clip-path="url(#id1)">
        <path fill="rgb(0%, 0%, 0%)" d="M 24.425781 0.121094 C 11.722656 0.121094 1.425781 10.421875 1.425781 23.125 C 1.425781 35.828125 11.722656 46.128906 24.425781 46.128906 C 37.132812 46.128906 47.429688 35.828125 47.429688 23.125 C 47.429688 10.421875 37.132812 0.121094 24.425781 0.121094 " fill-opacity="1" fill-rule="nonzero" />
    </g>
    <path fill="rgb(100%, 100%, 100%)" d="M 24.421875 1.414062 C 12.433594 1.414062 2.714844 11.132812 2.714844 23.117188 C 2.714844 35.105469 12.433594 44.824219 24.421875 44.824219 C 36.410156 44.824219 46.128906 35.105469 46.128906 23.117188 C 46.128906 11.132812 36.410156 1.414062 24.421875 1.414062 " fill-opacity="1" fill-rule="nonzero" />
    <path fill="rgb(0%, 0%, 0%)" d="M 24.417969 2.605469 C 13.089844 2.605469 3.90625 11.789062 3.90625 23.113281 C 3.90625 34.445312 13.089844 43.625 24.417969 43.625 C 35.746094 43.625 44.929688 34.445312 44.929688 23.113281 C 44.929688 11.789062 35.746094 2.605469 24.417969 2.605469 " fill-opacity="1" fill-rule="nonzero" />
    <path fill="rgb(100%, 100%, 100%)" d="M 10.601562 24.640625 L 7.972656 24.640625 C 7.863281 24.640625 7.773438 24.554688 7.773438 24.445312 L 7.773438 21.8125 C 7.773438 21.707031 7.863281 21.617188 7.972656 21.617188 L 10.601562 21.617188 C 10.710938 21.617188 10.800781 21.707031 10.800781 21.8125 L 10.800781 24.445312 C 10.800781 24.554688 10.710938 24.640625 10.601562 24.640625 " fill-opacity="1" fill-rule="nonzero" />
    <path fill="rgb(100%, 100%, 100%)" d="M 19.160156 25.386719 L 15.230469 25.386719 C 15.070312 25.386719 14.9375 25.253906 14.9375 25.09375 L 14.9375 21.164062 C 14.9375 21 15.070312 20.871094 15.230469 20.871094 L 19.160156 20.871094 C 19.320312 20.871094 19.453125 21 19.453125 21.164062 L 19.453125 25.09375 C 19.453125 25.253906 19.320312 25.386719 19.160156 25.386719 " fill-opacity="1" fill-rule="nonzero" />
    <path fill="rgb(100%, 100%, 100%)" d="M 29.128906 26.082031 L 23.976562 26.082031 C 23.765625 26.082031 23.59375 25.914062 23.59375 25.699219 L 23.59375 20.546875 C 23.59375 20.335938 23.765625 20.164062 23.976562 20.164062 L 29.128906 20.164062 C 29.339844 20.164062 29.511719 20.335938 29.511719 20.546875 L 29.511719 25.699219 C 29.511719 25.914062 29.339844 26.082031 29.128906 26.082031 " fill-opacity="1" fill-rule="nonzero" />
    <path fill="rgb(100%, 100%, 100%)" d="M 40.589844 26.828125 L 34.140625 26.828125 C 33.878906 26.828125 33.660156 26.609375 33.660156 26.34375 L 33.660156 19.894531 C 33.660156 19.632812 33.878906 19.414062 34.140625 19.414062 L 40.589844 19.414062 C 40.855469 19.414062 41.070312 19.632812 41.070312 19.894531 L 41.070312 26.34375 C 41.070312 26.609375 40.855469 26.828125 40.589844 26.828125 " fill-opacity="1" fill-rule="nonzero" />
</svg>